<?xml version="1.0" encoding="utf-8"?>
<!-- Generator: Adobe Illustrator 19.0.0, SVG Export Plug-In . SVG Version: 6.00 Build 0)  -->
<svg version="1.1" id="Warstwa_1" xmlns="http://www.w3.org/2000/svg" xmlns:xlink="http://www.w3.org/1999/xlink" x="0px" y="0px"
	 viewBox="0 0 53.8 24.8" style="enable-background:new 0 0 53.8 24.8;" xml:space="preserve">
<style type="text/css">
	.st0{fill:#FFFFFF;}
	.st1{fill:none;stroke:#693F9E;stroke-miterlimit:10;}
	.st2{fill:none;stroke:#4B58E3;stroke-miterlimit:10;}
	.st3{fill:none;stroke:#3F9AC6;stroke-miterlimit:10;}
	.st4{fill:none;stroke:#61DAFB;stroke-miterlimit:10;}
	.st5{fill:none;stroke:#E0F4B4;stroke-miterlimit:10;}
</style>
<g id="XMLID_1_">
	<g id="XMLID_55_">
		<g id="XMLID_95_">
			<path id="XMLID_96_" class="st0" d="M34.8,5.4v14h-3.2v-14H34.8z"/>
			<path id="XMLID_100_" class="st0" d="M53.7,13.3v6.1h-3v-5.9c0-1-0.5-1.6-1.4-1.6c-1,0-1.6,0.7-1.6,1.9v5.6h-3v-5.9
				c0-1-0.5-1.6-1.4-1.6c-1,0-1.6,0.7-1.6,1.9v5.6h-3v-10h3v0.9c0.5-0.7,1.3-1.2,2.7-1.2c1.2,0,2.1,0.5,2.6,1.3
				c0.6-0.8,1.5-1.3,2.9-1.3C52.2,9.1,53.7,10.8,53.7,13.3z"/>
		</g>
		<g id="XMLID_47_">
			<path id="XMLID_84_" class="st0" d="M1.4,4.3v7.3c0.7-0.8,1.4-1.2,2.4-1.2s1.9,0.4,2.4,1.1c0.3,0.5,0.5,1.1,0.5,2.2v5.1H5.2v-5
				c0-1.5-0.5-2.1-1.7-2.1c-0.8,0-1.5,0.4-1.8,1c-0.2,0.5-0.3,1.1-0.3,2.1v4.1H0V4.3H1.4z"/>
			<path id="XMLID_86_" class="st0" d="M9.6,15c0.1,1.7,1.1,2.8,2.6,2.8c1.1,0,1.8-0.5,2.6-1.7l1.2,0.7c-0.9,1.6-2.1,2.4-3.8,2.4
				c-2.4,0-4.1-1.8-4.1-4.3c0-2.6,1.6-4.4,4-4.4c2.4,0,4,1.7,4,4.4V15H9.6z M14.6,13.8c-0.3-1.3-1.2-2.1-2.4-2.1
				c-1.2,0-2.2,0.9-2.4,2.1H14.6z"/>
			<path id="XMLID_89_" class="st0" d="M19,10.5v0.9c0.7-0.9,1.1-1.1,1.9-1.1c0.5,0,0.8,0.1,1.3,0.4L21.5,12
				c-0.4-0.2-0.5-0.3-0.8-0.3c-0.5,0-1.1,0.3-1.3,0.8c-0.2,0.4-0.3,1-0.3,2v4.4h-1.4v-8.3H19z"/>
			<path id="XMLID_91_" class="st0" d="M23.4,15c0.1,1.7,1.1,2.8,2.6,2.8c1.1,0,1.8-0.5,2.6-1.7l1.2,0.7c-0.9,1.6-2.1,2.4-3.8,2.4
				c-2.4,0-4.1-1.8-4.1-4.3c0-2.6,1.6-4.4,4-4.4c2.4,0,4,1.7,4,4.4V15H23.4z M28.4,13.8c-0.3-1.3-1.2-2.1-2.4-2.1
				c-1.2,0-2.2,0.9-2.4,2.1H28.4z"/>
		</g>
		<path id="XMLID_83_" class="st0" d="M44.3,1c-1.3-1.3-3.4-1.3-4.7,0c-1.3,1.3-2.5,7.2-2.5,7.2s5.9-1.2,7.2-2.5
			C45.6,4.4,45.6,2.3,44.3,1z M43.2,4.5c-0.7,0.7-1.8,0.7-2.4,0s-0.7-1.8,0-2.4s1.8-0.7,2.4,0C43.9,2.8,43.9,3.9,43.2,4.5z"/>
	</g>
	<g id="XMLID_127_">
		<line id="XMLID_132_" class="st1" x1="2" y1="24.2" x2="12.2" y2="24.2"/>
		<line id="XMLID_131_" class="st2" x1="11.4" y1="24.2" x2="21.6" y2="24.2"/>
		<line id="XMLID_130_" class="st3" x1="20.7" y1="24.2" x2="31" y2="24.2"/>
		<line id="XMLID_129_" class="st4" x1="30.1" y1="24.2" x2="40.4" y2="24.2"/>
		<line id="XMLID_128_" class="st5" x1="39.5" y1="24.2" x2="49.7" y2="24.2"/>
	</g>
</g>
</svg>
